Coordinates
version=1
nRows=43
nColumns=12
inDegrees=yes

Units are S.I. units (second, meters, Newtons, ...)
Angles are in degrees

endheader
time	SC_y	SC_z	SC_x	AC_y	AC_z	AC_x	GH_y	GH_z	GH_yy	EL_x	PS_y
       0.0              -30.57          1.267          80.12          37.28        -0.1567          10.03         -93.82          4.807         -81.57          64.06          26.09
   0.02185              -30.57          1.266          80.11          37.29        -0.1555          10.03         -93.82          4.804         -81.57          64.05           26.1
   0.04371              -30.57          1.265          80.11          37.29        -0.1542          10.02         -93.81          4.801         -81.56          64.04          26.12
   0.06556              -30.58          1.264           80.1          37.29        -0.1528          10.02          -93.8          4.798         -81.55          64.04          26.14
   0.08741              -30.58          1.263          80.09          37.29        -0.1514          10.02          -93.8          4.794         -81.55          64.03          26.16
    0.1093              -30.58          1.262          80.08          37.29        -0.1498          10.02         -93.79          4.791         -81.54          64.02          26.18
    0.1311              -30.59          1.261          80.07          37.29        -0.1482          10.01         -93.78          4.786         -81.53          64.01           26.2
     0.153              -30.59           1.26          80.06           37.3        -0.1464          10.01         -93.77          4.782         -81.53           64.0          26.23
    0.1748               -30.6          1.258          80.05           37.3        -0.1446          10.01         -93.76          4.778         -81.52          63.99          26.25
    0.1967               -30.6          1.257          80.04           37.3        -0.1425           10.0         -93.75          4.773         -81.51          63.98          26.28
    0.2185              -30.61          1.256          80.03           37.3        -0.1404           10.0         -93.74          4.767          -81.5          63.97          26.31
    0.2404              -30.61          1.254          80.01           37.3         -0.138          9.996         -93.73          4.761         -81.49          63.96          26.34
    0.2622              -30.62          1.252           80.0          37.31        -0.1355          9.992         -93.72          4.755         -81.48          63.94          26.38
    0.2841              -30.62           1.25          79.99          37.31        -0.1328          9.987          -93.7          4.749         -81.47          63.93          26.42
    0.3059              -30.63          1.248          79.97          37.31        -0.1299          9.982         -93.69          4.741         -81.46          63.91          26.46
    0.3278              -30.64          1.246          79.95          37.32        -0.1267          9.977         -93.67          4.733         -81.44           63.9           26.5
    0.3497              -30.64          1.244          79.93          37.32        -0.1232          9.971         -93.65          4.725         -81.43          63.88          26.55
    0.3715              -30.65          1.241          79.91          37.32        -0.1195          9.964         -93.63          4.716         -81.41          63.86           26.6
    0.3934              -30.66          1.238          79.89          37.33        -0.1153          9.957         -93.61          4.705         -81.39          63.84          26.66
    0.4152              -30.67          1.235          79.86          37.33        -0.1108          9.949         -93.59          4.694         -81.37          63.81          26.72
    0.4371              -30.69          1.232          79.84          37.34        -0.1059          9.941         -93.56          4.682         -81.35          63.78          26.79
    0.4589               -30.7          1.228           79.8          37.34        -0.1004          9.931         -93.54          4.669         -81.33          63.76          26.86
    0.4808              -30.71          1.224          79.77          37.35        -0.0944          9.921         -93.51          4.654          -81.3          63.72          26.95
    0.5026              -30.73          1.219          79.73          37.36       -0.08773           9.91         -93.47          4.637         -81.27          63.69          27.04
    0.5245              -30.74          1.214          79.69          37.36       -0.08032          9.897         -93.43          4.619         -81.24          63.65          27.14
    0.5463              -30.76          1.209          79.65          37.37       -0.07204          9.883         -93.39          4.599          -81.2           63.6          27.25
    0.5682              -30.79          1.202          79.59          37.38       -0.06277          9.867         -93.35          4.576         -81.16          63.55          27.38
      0.59              -30.81          1.195          79.54          37.39       -0.05235          9.849         -93.29           4.55         -81.12           63.5          27.53
    0.6119              -30.84          1.187          79.47           37.4       -0.04057          9.828         -93.23          4.521         -81.07          63.44          27.69
    0.6337              -30.87          1.178           79.4          37.42       -0.02719          9.805         -93.17          4.488         -81.01          63.36          27.87
    0.6556               -30.9          1.167          79.31          37.43       -0.01192          9.779         -93.09          4.451         -80.94          63.28          28.08
    0.6774              -30.94          1.155          79.21          37.45       0.005604          9.749          -93.0          4.407         -80.87          63.19          28.33
    0.6993              -30.99          1.141           79.1          37.47        0.02583          9.714          -92.9          4.357         -80.78          63.08           28.6
    0.7212              -31.05          1.125          78.97           37.5        0.04934          9.674         -92.78            4.3         -80.68          62.96          28.93
     0.743              -31.11          1.106          78.81          37.52        0.07685          9.627         -92.64          4.232         -80.56          62.81          29.31
    0.7649              -31.18          1.084          78.63          37.56         0.1093          9.571         -92.47          4.152         -80.42          62.64          29.76
    0.7867              -31.27          1.057          78.42           37.6         0.1478          9.504         -92.28          4.057         -80.25          62.43          30.29
    0.8086              -31.38          1.025          78.16          37.65          0.194          9.425         -92.04          3.943         -80.05          62.18          30.92
    0.8304              -31.51         0.9869          77.85           37.7         0.2499          9.329         -91.76          3.805         -79.81          61.88          31.69
    0.8523              -31.67         0.9399          77.47          37.77         0.3181          9.212         -91.41          3.637         -79.52          61.52          32.64
    0.8741              -31.87         0.8819          76.99          37.86         0.4024          9.067         -90.98          3.429         -79.15          61.07           33.8
     0.896              -32.11         0.8096          76.41          37.97         0.5074          8.886         -90.45           3.17          -78.7          60.51          35.25
    0.9178              -32.42         0.7185          75.67           38.1         0.6398          8.658         -89.78          2.844         -78.12           59.8          37.07
